Coordinates
version=1
nRows=14
nColumns=63
inDegrees=yes

Units are S.I. units (second, meters, Newtons, ...)
If the header above contains a line with 'inDegrees', this indicates whether rotational values are in degrees (yes) or radians (no).

endheader
time	pelvis_tilt	pelvis_list	pelvis_rotation	pelvis_tx	pelvis_ty	pelvis_tz	hip_flexion_r	hip_adduction_r	hip_rotation_r	knee_angle_r	knee_angle_r_beta	ankle_angle_r	subtalar_angle_r	mtp_angle_r	hip_flexion_l	hip_adduction_l	hip_rotation_l	knee_angle_l	knee_angle_l_beta	ankle_angle_l	subtalar_angle_l	mtp_angle_l	L5_S1_Flex_Ext	L5_S1_Lat_Bending	L5_S1_axial_rotation	L4_L5_Flex_Ext	L4_L5_Lat_Bending	L4_L5_axial_rotation	L3_L4_Flex_Ext	L3_L4_Lat_Bending	L3_L4_axial_rotation	L2_L3_Flex_Ext	L2_L3_Lat_Bending	L2_L3_axial_rotation	L1_L2_Flex_Ext	L1_L2_Lat_Bending	L1_L2_axial_rotation	L1_T12_Flex_Ext	L1_T12_Lat_Bending	L1_T12_axial_rotation	Abs_r3	Abs_r2	Abs_r1	Abs_t1	Abs_t2	neck_flexion	neck_bending	neck_rotation	arm_flex_r	arm_add_r	arm_rot_r	elbow_flex_r	pro_sup_r	wrist_flex_r	wrist_dev_r	arm_flex_l	arm_add_l	arm_rot_l	elbow_flex_l	pro_sup_l	wrist_flex_l	wrist_dev_l
4.406780	2.386016	8.305011	86.583573	0.304804	0.781252	0.628118	-10.609018	4.100358	9.797062	2.366313	0.041300	25.283308	-1.451783	0.000000	-10.995196	-3.127543	5.433052	2.763157	0.048226	27.945405	-8.490129	0.000000	0.118094	-0.606206	-3.012899	0.219313	-0.806254	-3.201205	0.194017	-1.473929	-3.201205	0.134970	-1.473929	-2.636287	0.109662	-1.236175	-2.447981	0.067479	-0.939013	-2.259674	0.843536	-6.857521	-16.756842	0.000000	0.000000	-11.727825	15.347183	-8.308877	55.308978	-40.315280	-17.522364	125.158892	81.861079	10.221947	3.813895	56.559584	9.962043	72.149499	92.186027	88.723782	-13.828064	3.050538
4.423729	2.388941	8.330859	86.461024	0.304859	0.781030	0.627763	-10.635040	4.073600	9.222547	2.526229	0.044091	25.387290	-0.704035	0.000000	-11.098066	-3.097378	5.797521	2.690564	0.046959	27.822991	-9.096082	0.000000	0.120358	-0.595026	-3.051062	0.223516	-0.791384	-3.241753	0.197736	-1.446745	-3.241753	0.137557	-1.446745	-2.669679	0.111764	-1.213376	-2.478987	0.068772	-0.921695	-2.288296	0.859704	-6.731049	-16.969089	0.000000	0.000000	-11.627784	15.301602	-7.380461	56.613722	-40.035080	-16.817297	124.949172	82.248759	11.954887	4.565831	56.855439	9.923941	72.078743	92.551521	88.717842	-14.253478	3.093039
4.440678	2.385533	8.318312	86.350473	0.304989	0.780760	0.627303	-10.630170	4.048760	8.740610	2.669161	0.046586	25.475370	-0.089190	0.000000	-11.180300	-3.071332	6.054449	2.568209	0.044824	27.749049	-9.545900	0.000000	0.123630	-0.588845	-3.055093	0.229593	-0.783164	-3.246036	0.203112	-1.431717	-3.246036	0.141297	-1.431717	-2.673206	0.114803	-1.200772	-2.482263	0.070642	-0.912121	-2.291320	0.883077	-6.661130	-16.991511	0.000000	0.000000	-11.305719	15.420258	-6.842220	57.804890	-40.047466	-16.423826	124.794716	82.696320	13.899924	5.305018	57.339739	10.099377	72.111267	92.859333	88.698455	-14.189874	2.804425
4.457627	2.367892	8.266039	86.240279	0.305229	0.780470	0.626751	-10.588522	4.018125	8.322642	2.796979	0.048816	25.550298	0.432565	0.000000	-11.239166	-3.040633	6.194669	2.401158	0.041908	27.708224	-9.844549	0.000000	0.129367	-0.589693	-3.028916	0.240247	-0.784292	-3.218223	0.212537	-1.433780	-3.218223	0.147854	-1.433780	-2.650301	0.120130	-1.202503	-2.460994	0.073920	-0.913435	-2.271687	0.924056	-6.670729	-16.845920	0.000000	0.000000	-10.829081	15.690794	-6.690783	58.832809	-40.252380	-16.409577	124.668788	82.978525	16.239510	6.073849	57.923384	10.457812	72.207979	93.068469	88.664379	-13.513447	2.167091
4.474576	2.339442	8.178606	86.148805	0.305488	0.780141	0.626129	-10.517013	3.984173	7.989133	2.904877	0.050700	25.605758	0.825354	0.000000	-11.271860	-3.007284	6.268803	2.196985	0.038345	27.694078	-10.044004	0.000000	0.138265	-0.594236	-2.988336	0.256773	-0.790334	-3.175107	0.227156	-1.444826	-3.175107	0.158024	-1.444826	-2.614794	0.128393	-1.211767	-2.428023	0.079005	-0.920472	-2.241252	0.987616	-6.722121	-16.620229	0.000000	0.000000	-10.267790	16.008721	-6.755786	59.747256	-40.614262	-16.527462	124.562045	83.004483	18.513876	6.715167	58.598627	10.892598	72.416703	93.281919	88.644663	-12.758247	1.482171
4.491525	2.323089	8.085852	86.037366	0.305783	0.779839	0.625503	-10.438661	3.962084	7.740337	3.007905	0.052498	25.636927	1.123455	0.000000	-11.312415	-2.985867	6.224146	1.964996	0.034296	27.713953	-10.112427	0.000000	0.145656	-0.600400	-2.927778	0.270498	-0.798532	-3.110764	0.239298	-1.459813	-3.110764	0.166470	-1.459813	-2.561806	0.135256	-1.224336	-2.378819	0.083228	-0.930020	-2.195833	1.040406	-6.791845	-16.283421	0.000000	0.000000	-9.707253	16.340708	-7.034965	60.574996	-41.042317	-16.901379	124.427501	82.492254	21.368292	7.461897	59.319191	11.379117	72.779444	93.357866	88.639534	-12.207772	0.312319
4.508475	2.307264	7.986028	85.919236	0.306122	0.779557	0.624922	-10.348469	3.944735	7.600425	3.103523	0.054167	25.647281	1.289298	0.000000	-11.345556	-2.968487	6.116577	1.723698	0.030084	27.750749	-10.111579	0.000000	0.150699	-0.610575	-2.843631	0.279863	-0.812065	-3.021358	0.247584	-1.484553	-3.021358	0.172234	-1.484553	-2.488178	0.139939	-1.245085	-2.310451	0.086109	-0.945781	-2.132724	1.076429	-6.906950	-15.815425	0.000000	0.000000	-9.158171	16.681464	-7.614900	61.112120	-41.562047	-17.594219	124.383341	81.878156	24.021623	8.012144	60.033689	11.912148	73.184632	93.366377	88.647548	-11.429151	-0.651052
4.525424	2.281910	7.896250	85.823148	0.306449	0.779305	0.624434	-10.264594	3.923190	7.513798	3.181452	0.055527	25.657762	1.385558	0.000000	-11.376697	-2.947106	6.001384	1.486266	0.025940	27.788557	-10.072509	0.000000	0.153936	-0.623080	-2.756282	0.285874	-0.828697	-2.928549	0.252901	-1.514958	-2.928549	0.175933	-1.514958	-2.411746	0.142945	-1.270586	-2.239479	0.087959	-0.965152	-2.067211	1.099549	-7.048410	-15.329612	0.000000	0.000000	-8.711081	16.964193	-8.213882	61.435205	-42.083650	-18.355598	124.450690	81.201278	26.066770	8.460377	60.737086	12.364991	73.666425	93.397453	88.678798	-10.984412	-1.296944
4.542373	2.265952	7.835786	85.724107	0.306759	0.779101	0.624114	-10.197441	3.910772	7.485774	3.253070	0.056777	25.683959	1.432000	0.000000	-11.424444	-2.933553	5.872443	1.262711	0.022038	27.831468	-10.016011	0.000000	0.151615	-0.634946	-2.669585	0.281564	-0.844478	-2.836434	0.249088	-1.543808	-2.836434	0.173281	-1.543808	-2.335887	0.140790	-1.294782	-2.169038	0.086633	-0.983531	-2.002189	1.082970	-7.182637	-14.847429	0.000000	0.000000	-8.383047	17.171389	-8.744537	61.609476	-42.520791	-19.183235	124.542938	80.391600	27.923602	8.693374	61.390203	12.693197	74.148883	93.490964	88.727572	-10.824673	-1.413803
4.559322	2.251497	7.796186	85.642580	0.307021	0.778941	0.623973	-10.134122	3.899297	7.379755	3.322260	0.057984	25.761584	1.606978	0.000000	-11.471971	-2.920944	5.845678	1.060274	0.018505	27.841395	-10.071873	0.000000	0.144601	-0.647709	-2.581985	0.268538	-0.861453	-2.743359	0.237564	-1.574840	-2.743359	0.165264	-1.574840	-2.259237	0.134276	-1.320809	-2.097863	0.082625	-1.003302	-1.936489	1.032867	-7.327017	-14.360227	0.000000	0.000000	-8.150159	17.326354	-9.281596	61.523563	-42.918010	-20.095192	124.743476	79.600198	29.150904	8.842133	61.932614	12.914696	74.625828	93.606980	88.796980	-10.978557	-1.227601
4.576271	2.231089	7.765781	85.603764	0.307173	0.778819	0.624018	-10.063993	3.883198	7.181669	3.381709	0.059022	25.878566	1.889817	0.000000	-11.489248	-2.908649	5.755771	0.909631	0.015876	27.881257	-9.976648	0.000000	0.135180	-0.661423	-2.502771	0.251043	-0.879693	-2.659195	0.222088	-1.608185	-2.659195	0.154498	-1.608185	-2.189925	0.125528	-1.348775	-2.033502	0.077242	-1.024545	-1.877079	0.965580	-7.482154	-13.919664	0.000000	0.000000	-8.022293	17.437117	-9.768699	61.167862	-43.263741	-21.026043	125.068606	78.955451	29.530384	9.013861	62.280768	13.017886	74.991424	93.712746	88.866262	-11.094680	-1.017617
4.593220	2.242025	7.768583	85.568030	0.307225	0.778745	0.624258	-10.013343	3.893377	6.956824	3.433338	0.059923	26.015702	2.229688	0.000000	-11.512558	-2.924970	5.640681	0.808390	0.014109	27.950133	-9.831088	0.000000	0.120261	-0.668167	-2.449088	0.223336	-0.888662	-2.602156	0.197577	-1.624580	-2.602156	0.137446	-1.624580	-2.142952	0.111674	-1.362525	-1.989884	0.068717	-1.034990	-1.836816	0.859011	-7.558434	-13.621091	0.000000	0.000000	-8.063890	17.413971	-9.932545	60.775463	-43.484132	-21.621192	125.388530	78.606306	28.991260	8.955007	62.440338	12.887105	75.206611	94.011898	89.102834	-11.517476	-0.434249
4.610169	2.263753	7.779783	85.563183	0.307166	0.778686	0.624617	-9.974981	3.917533	6.851844	3.449878	0.060212	26.111530	2.377024	0.000000	-11.524426	-2.949737	5.712089	0.733210	0.012797	27.963963	-9.902541	0.000000	0.103565	-0.671819	-2.414763	0.192331	-0.893520	-2.565686	0.170148	-1.633462	-2.565686	0.118365	-1.633462	-2.112917	0.096171	-1.369974	-1.961995	0.059177	-1.040648	-1.811072	0.739757	-7.599755	-13.430186	0.000000	0.000000	-8.198341	17.322792	-9.932334	60.217055	-43.659800	-21.957828	125.795681	78.765688	27.161970	8.776614	62.392022	12.600850	75.235241	94.363023	89.590484	-11.715851	-0.013870
4.627119	2.294314	7.787950	85.599333	0.307004	0.778625	0.625071	-9.932256	3.956180	6.740395	3.454066	0.060285	26.185408	2.472792	0.000000	-11.505861	-2.987964	5.821848	0.699784	0.012214	27.975570	-9.978310	0.000000	0.086745	-0.672362	-2.399017	0.161094	-0.894241	-2.548956	0.142513	-1.634781	-2.548956	0.099141	-1.634781	-2.099140	0.080551	-1.371080	-1.949201	0.049566	-1.041489	-1.799263	0.619611	-7.605892	-13.342613	0.000000	0.000000	-8.390267	17.173063	-9.792119	59.533110	-43.788916	-22.111574	126.292792	79.372875	24.493017	8.596022	62.155834	12.182020	75.106542	94.758046	90.141629	-11.553326	0.237723
